<svg width="128" height="128" viewBox="0 0 128 128" fill="none" xmlns="http://www.w3.org/2000/svg">
  <defs>
    <linearGradient id="orbit" x1="18" y1="20" x2="110" y2="108" gradientUnits="userSpaceOnUse">
      <stop offset="0" stop-color="#25F4EE"/>
      <stop offset="0.48" stop-color="#7C8CFF"/>
      <stop offset="1" stop-color="#F0C766"/>
    </linearGradient>
    <linearGradient id="core" x1="38" y1="31" x2="91" y2="99" gradientUnits="userSpaceOnUse">
      <stop offset="0" stop-color="#12242A"/>
      <stop offset="1" stop-color="#071013"/>
    </linearGradient>
    <filter id="glow" x="-24" y="-24" width="176" height="176" filterUnits="userSpaceOnUse" color-interpolation-filters="sRGB">
      <feGaussianBlur stdDeviation="5" result="blur"/>
      <feColorMatrix in="blur" type="matrix" values="0 0 0 0 0.145 0 0 0 0 0.78 0 0 0 0 0.74 0 0 0 0.5 0"/>
      <feMerge>
        <feMergeNode/>
        <feMergeNode in="SourceGraphic"/>
      </feMerge>
    </filter>
  </defs>

  <rect x="8" y="8" width="112" height="112" rx="28" fill="#081114"/>
  <rect x="8.75" y="8.75" width="110.5" height="110.5" rx="27.25" stroke="url(#orbit)" stroke-opacity="0.55" stroke-width="1.5"/>

  <g filter="url(#glow)">
    <path d="M93.5 42.5C85.6 29.1 67.6 23.8 52.7 31.1C41 36.8 34.6 48.9 36.1 61.2" stroke="url(#orbit)" stroke-width="9" stroke-linecap="round"/>
    <path d="M86.5 42.9L97 43.8L99.1 33.5" stroke="#F0C766" stroke-width="7" stroke-linecap="round" stroke-linejoin="round"/>
    <path d="M34.5 85.5C42.4 98.9 60.4 104.2 75.3 96.9C87 91.2 93.4 79.1 91.9 66.8" stroke="url(#orbit)" stroke-width="9" stroke-linecap="round"/>
    <path d="M41.5 85.1L31 84.2L28.9 94.5" stroke="#25F4EE" stroke-width="7" stroke-linecap="round" stroke-linejoin="round"/>
  </g>

  <circle cx="64" cy="64" r="25" fill="url(#core)" stroke="#FFFFFF" stroke-opacity="0.18" stroke-width="1"/>
  <path d="M55 52L43 64L55 76" stroke="#25F4EE" stroke-width="5" stroke-linecap="round" stroke-linejoin="round"/>
  <path d="M73 52L85 64L73 76" stroke="#F0C766" stroke-width="5" stroke-linecap="round" stroke-linejoin="round"/>
  <path d="M61 78L68 50" stroke="#EAFBFF" stroke-width="4.5" stroke-linecap="round"/>

  <circle cx="35" cy="35" r="6.5" fill="#25F4EE"/>
  <circle cx="93" cy="33" r="6" fill="#F0C766"/>
  <circle cx="96" cy="93" r="6.5" fill="#7C8CFF"/>
  <circle cx="33" cy="95" r="5.5" fill="#25C7BD"/>
  <path d="M40 38L52 51" stroke="#25F4EE" stroke-opacity="0.55" stroke-width="2.5" stroke-linecap="round"/>
  <path d="M88.5 37.5L77.5 51" stroke="#F0C766" stroke-opacity="0.55" stroke-width="2.5" stroke-linecap="round"/>
  <path d="M82 82L91 90" stroke="#7C8CFF" stroke-opacity="0.6" stroke-width="2.5" stroke-linecap="round"/>
  <path d="M46 82L36.5 91" stroke="#25C7BD" stroke-opacity="0.6" stroke-width="2.5" stroke-linecap="round"/>
</svg>
